<svg width="92" height="52" viewBox="0 0 92 52" fill="none" xmlns="http://www.w3.org/2000/svg">
<path fill-rule="evenodd" clip-rule="evenodd" d="M51.21 11.29L39.952 22.58L42.761 25.271L45.57 27.962L56.785 16.716C62.953 10.53 68 4.983 68 4.389C68 3.109 64.745 0 63.405 0C62.889 0 57.401 5.08 51.21 11.29ZM66.256 20.237L46.019 40.475L37.499 31.999C30.457 24.994 28.689 23.706 27.306 24.579C22.562 27.571 22.998 28.487 34.754 40.243L45.997 51.486L57.498 39.9935L68.999 28.501C81.649 15.86 92 5.02 92 4.413C92 3.121 88.76 0 87.418 0C86.91 0 77.387 9.107 66.256 20.237ZM1.655 25.829C0.745 26.835 0 28.08 0 28.598C0 29.115 4.504 34.024 10.008 39.508C18.314 47.782 20.302 49.299 21.692 48.423C26.359 45.479 25.923 44.462 15.508 34.008C10.024 28.504 5.036 24 4.424 24C3.811 24 2.565 24.823 1.655 25.829Z" fill="black"/>
</svg>
