<svg width="96" height="96" viewBox="0 0 96 96" fill="none" xmlns="http://www.w3.org/2000/svg">
<path fill-rule="evenodd" clip-rule="evenodd" d="M38.618 9.04801C32.29 10.638 23.284 15.968 18.912 20.711C16.667 23.147 13.405 28.147 11.665 31.82C8.799 37.869 8.5 39.402 8.5 48.052C8.5 57.067 8.71 58.028 12.235 65.16C16.733 74.262 22.523 79.931 31.82 84.335C37.861 87.197 39.409 87.5 48 87.5C56.591 87.5 58.139 87.197 64.18 84.335C73.477 79.931 79.267 74.262 83.765 65.16C87.294 58.02 87.5 57.075 87.5 48C87.5 38.925 87.294 37.98 83.765 30.84C77.008 17.167 65.003 9.14401 50.249 8.44201C45.987 8.23901 40.753 8.51201 38.618 9.04801ZM40.5 16.868C31.278 19.291 23.178 25.943 19.027 34.5C15.55 41.667 15.55 54.333 19.027 61.5C22.12 67.876 28.124 73.88 34.5 76.973C41.667 80.45 54.333 80.45 61.5 76.973C67.876 73.88 73.88 67.876 76.973 61.5C80.45 54.333 80.45 41.667 76.973 34.5C73.874 28.111 67.836 22.08 61.613 19.156C56.331 16.675 45.641 15.516 40.5 16.868ZM44 36.772V49.544L52.51 58.01C61.391 66.845 62.54 67.262 65.42 62.695C66.288 61.321 65.192 59.734 59.237 53.739L52 46.453V35.226V24H48H44V36.772Z" fill="black"/>
</svg>
